<svg width="42" height="52" viewBox="0 0 42 52" fill="none" xmlns="http://www.w3.org/2000/svg">
<path d="M21.0029 0C32.4391 7.74029e-05 41.7404 9.35688 42 21C40.9757 35.2294 29.2083 45.2322 21.5254 51.5L19.9971 50.2949C12.1201 44.0272 0.98425 34.1249 0 21H0.00585938C0.265411 9.35693 9.56688 0.000159809 21.0029 0Z" fill="#FF2D55"/>
<path d="M26.1594 13.6348H23.4709V16.2529H25.0051C25.5015 16.253 25.9792 16.431 26.3527 16.751L26.5061 16.8955L31.3986 22.0381C32.0004 22.6707 32.1421 23.6128 31.7512 24.3936L28.2316 31.4199L24.5256 29.5654L27.3947 23.8389L24.1164 20.3955H18.8537L15.5754 23.8389L18.4445 29.5654L14.7385 31.4199L11.2189 24.3936C10.828 23.6128 10.9697 22.6707 11.5715 22.0381L16.4641 16.8955L16.6174 16.751C16.9908 16.4311 17.4678 16.2531 17.9641 16.2529H19.3283V13.6348H16.6408V9.49219H26.1594V13.6348Z" fill="white"/>
</svg>
