<svg width="19" height="19" viewBox="0 0 19 19" fill="none" xmlns="http://www.w3.org/2000/svg">
<rect width="19" height="19" rx="9.5" fill="#EFEFEF"/>
<path d="M8.58011 11.0552C8.58564 10.5497 8.63812 10.1409 8.73757 9.82873C8.83978 9.51381 8.98066 9.26243 9.16022 9.07459C9.33978 8.88398 9.58011 8.69613 9.88122 8.51105C10.1436 8.35083 10.3522 8.15193 10.5069 7.91436C10.6644 7.6768 10.7431 7.40331 10.7431 7.09392C10.7431 6.83149 10.6809 6.60221 10.5566 6.40608C10.4351 6.20718 10.268 6.05387 10.0552 5.94613C9.84254 5.8384 9.60773 5.78453 9.35083 5.78453C9.11602 5.78453 8.89503 5.83287 8.68785 5.92956C8.48343 6.02624 8.31354 6.1768 8.17818 6.38121C8.04282 6.58287 7.96409 6.83702 7.94199 7.14365H6.87293C6.89227 6.68232 7.01243 6.28315 7.23343 5.94613C7.45718 5.60635 7.75276 5.34668 8.12017 5.16713C8.49033 4.98757 8.90055 4.89779 9.35083 4.89779C9.83149 4.89779 10.2541 4.99447 10.6188 5.18784C10.9862 5.37845 11.2693 5.64365 11.4682 5.98343C11.6699 6.3232 11.7707 6.70718 11.7707 7.13536C11.7707 7.58287 11.6713 7.97099 11.4724 8.29972C11.2735 8.62845 10.9862 8.90884 10.6105 9.14088C10.3591 9.29558 10.1616 9.45442 10.018 9.6174C9.87707 9.78039 9.77348 9.97514 9.70718 10.2017C9.64088 10.4282 9.60497 10.7127 9.59945 11.0552V11.105H8.58011V11.0552ZM9.12707 13.5663C8.99171 13.5663 8.86464 13.5331 8.74586 13.4669C8.62983 13.3978 8.53729 13.3052 8.46823 13.1892C8.40193 13.0732 8.37017 12.9475 8.37293 12.8122C8.37017 12.6768 8.40193 12.5511 8.46823 12.4351C8.53729 12.3191 8.62983 12.2279 8.74586 12.1616C8.86464 12.0925 8.99171 12.058 9.12707 12.058C9.26243 12.058 9.38812 12.0925 9.50414 12.1616C9.62017 12.2279 9.71133 12.3191 9.77762 12.4351C9.84669 12.5511 9.88122 12.6768 9.88122 12.8122C9.88122 12.9475 9.84669 13.0732 9.77762 13.1892C9.71133 13.3052 9.62017 13.3978 9.50414 13.4669C9.38812 13.5331 9.26243 13.5663 9.12707 13.5663Z" fill="#ACACAC"/>
</svg>
